<svg version="1.1" id="Layer_1" xmlns="http://www.w3.org/2000/svg" xmlns:xlink="http://www.w3.org/1999/xlink" x="0px" y="0px"
	 width="100%" viewBox="0 0 496 496" enable-background="new 0 0 496 496" xml:space="preserve">
<path fill="#000000" opacity="1.000000" stroke="none" 
	d="
M246.253815,175.568237 
	C241.828888,175.456421 237.832870,175.464340 233.839569,175.364471 
	C231.296066,175.300873 230.187515,176.490921 230.217651,178.967087 
	C230.276413,183.794067 230.050842,188.639496 230.398270,193.444366 
	C230.874680,200.032837 235.385010,203.679428 243.544876,204.614395 
	C249.826309,205.334152 250.033417,205.632355 248.442352,212.634995 
	C242.857635,208.203629 235.584045,207.130325 230.258423,200.199173 
	C230.258423,213.019241 230.248962,224.421143 230.268158,235.822998 
	C230.271194,237.628006 231.272888,238.609512 233.075455,238.602539 
	C238.233551,238.582565 243.422424,238.844513 248.539948,238.364227 
	C252.910339,237.954086 256.054504,235.083344 258.461243,231.448441 
	C259.228790,230.289185 259.470825,228.667847 261.273132,227.801239 
	C262.039703,231.662628 260.578674,234.916122 260.119141,238.256302 
	C259.850800,240.206741 258.209351,240.338394 256.672272,240.339951 
	C246.184036,240.350601 235.695709,240.317307 225.207535,240.343018 
	C222.619064,240.349365 221.699890,239.019745 221.702606,236.607712 
	C221.724991,216.796158 221.744568,196.984497 221.699051,177.173035 
	C221.691010,173.674194 223.977173,173.676590 226.415665,173.676926 
	C235.738800,173.678192 245.061996,173.650650 254.385025,173.680664 
	C260.709808,173.701019 260.888336,173.970001 259.655060,181.594986 
	C255.561874,178.691864 251.512466,176.168289 246.253815,175.568237 
z"/>
<path fill="#000000" opacity="1.000000" stroke="none" 
	d="
M183.425079,221.449600 
	C188.409286,213.750290 187.228287,207.231857 181.914429,200.361755 
	C176.945236,193.937271 173.024536,186.694412 168.749512,179.745819 
	C167.747589,178.117310 166.172806,176.635239 166.473450,174.202484 
	C171.383545,172.963150 175.209213,173.280609 178.059708,178.579376 
	C181.823181,185.575272 186.441101,192.111511 191.085678,199.469421 
	C196.771454,188.378983 199.735748,175.369339 214.747070,174.258713 
	C202.568802,177.595642 198.448898,187.853516 194.273499,198.158432 
	C193.083862,201.094437 193.359467,203.453156 195.058578,206.097260 
	C201.089737,215.482727 206.966736,224.967880 212.831543,234.458908 
	C213.766403,235.971832 215.185699,237.297089 215.255356,239.260559 
	C209.402069,241.550369 207.220352,240.943298 204.125626,236.045639 
	C199.335464,228.464767 194.591522,220.854660 189.440796,212.639404 
	C183.959320,223.914978 182.023880,237.391373 167.148224,239.883560 
	C175.725464,236.730240 179.867493,229.590912 183.425079,221.449600 
z"/>
<path fill="#000000" opacity="1.000000" stroke="none" 
	d="
M160.112152,181.116669 
	C160.160583,192.586975 160.292175,203.571793 160.240967,214.555756 
	C160.120148,240.471390 135.721085,245.423386 121.332932,237.470795 
	C113.129181,232.936417 109.036728,225.809448 108.795578,216.740402 
	C108.455032,203.933716 108.738510,191.111237 108.664612,178.296036 
	C108.647842,175.387695 109.194527,173.592789 112.732819,173.588135 
	C116.266373,173.583511 117.360069,175.038193 117.332756,178.375992 
	C117.230598,190.857880 117.316788,203.341202 117.283195,215.823853 
	C117.275970,218.508148 117.532845,221.119141 118.342987,223.690460 
	C121.434746,233.503494 130.035904,239.784286 138.772354,238.562988 
	C149.596542,237.049835 157.536194,228.562759 157.615555,217.955032 
	C157.724716,203.364731 158.628159,188.649490 152.363754,174.861481 
	C158.793137,172.354370 159.958237,173.279449 160.112152,181.116669 
z"/>
<path fill="#000000" opacity="1.000000" stroke="none" 
	d="
M62.682770,214.999939 
	C62.683617,202.678787 62.721474,190.857468 62.661293,179.036636 
	C62.645443,175.923126 62.793961,173.553757 67.046440,173.600082 
	C71.343346,173.646912 71.334961,176.170563 71.329819,179.192444 
	C71.299210,197.173828 71.449196,215.157074 71.216141,233.135513 
	C71.157951,237.624466 72.650772,239.145935 76.962608,238.700653 
	C79.598526,238.428452 82.292030,238.525330 84.947876,238.671234 
	C92.004478,239.058884 97.188683,236.253708 100.449318,229.943954 
	C100.746536,229.368805 101.200996,228.871780 101.608604,228.359299 
	C101.695961,228.249512 101.897018,228.230164 102.482910,227.989716 
	C102.895638,231.694382 101.854050,235.058594 101.107422,238.430756 
	C100.682625,240.349396 98.996765,240.334503 97.499565,240.337616 
	C87.177277,240.359055 76.854446,240.288696 66.532875,240.376007 
	C63.322433,240.403152 62.642620,238.716095 62.671032,235.978409 
	C62.741867,229.152939 62.687336,222.326187 62.682770,214.999939 
z"/>
<path fill="#000000" opacity="1.000000" stroke="none" 
	d="
M230.669983,293.855927 
	C230.663925,280.909027 230.802795,268.444397 230.590637,255.985748 
	C230.520126,251.845322 231.912109,250.299606 236.025665,250.605118 
	C239.661133,250.875122 243.361252,250.372955 246.981018,250.732758 
	C252.328171,251.264267 257.720734,252.269882 260.238831,257.955780 
	C262.793030,263.723206 259.921967,267.841492 254.903748,271.455200 
	C260.826477,273.886169 265.386475,276.722107 265.418457,283.599762 
	C265.461243,292.808868 261.531189,297.659119 252.299591,298.251770 
	C246.342148,298.634186 240.340546,298.289154 234.360031,298.368744 
	C231.499863,298.406799 230.520172,296.948853 230.669983,293.855927 
M237.118027,282.501404 
	C237.119781,283.332916 237.120529,284.164398 237.123459,284.995911 
	C237.167618,297.576721 238.194611,298.456818 250.631592,296.572571 
	C256.278534,295.717072 259.255829,291.880859 259.507843,285.135712 
	C259.724670,279.332031 256.782227,274.275787 252.004456,273.663025 
	C246.757553,272.990082 241.441406,273.068756 237.977051,267.480438 
	C237.689804,267.860626 237.402557,268.240784 237.115311,268.620941 
	C237.115311,272.917267 237.115311,277.213623 237.118027,282.501404 
M237.339615,259.929108 
	C237.938690,261.643127 238.361526,263.445618 239.169556,265.054688 
	C241.691849,270.077576 245.276382,271.883942 249.571274,270.497467 
	C253.470322,269.238739 255.511108,264.867157 254.595245,259.735565 
	C253.653336,254.458054 248.182785,251.650620 240.612686,252.308105 
	C235.510971,252.751221 237.699539,256.497101 237.339615,259.929108 
z"/>
<path fill="#000000" opacity="1.000000" stroke="none" 
	d="
M275.340607,280.094238 
	C275.344543,284.734192 275.404419,288.894379 275.330994,293.052185 
	C275.286438,295.578339 276.384918,296.571259 278.901733,296.678711 
	C286.114471,296.986725 293.349854,297.559937 297.634827,288.215607 
	C297.960327,297.856812 297.514008,298.366577 290.226440,298.376251 
	C284.736328,298.383514 279.243958,298.280121 273.756958,298.409790 
	C270.718170,298.481628 269.043671,297.537506 269.056580,294.223145 
	C269.107727,281.080719 269.063354,267.937927 269.091614,254.795334 
	C269.096771,252.418900 269.742249,250.561584 272.742371,250.597717 
	C279.728333,250.681900 286.715729,250.655670 293.702545,250.662949 
	C297.348145,250.666733 297.785431,252.519592 296.431366,256.094299 
	C291.372986,252.557419 285.859833,252.177536 280.147522,252.250366 
	C276.411957,252.298019 274.991241,253.705093 275.326569,257.314880 
	C275.479767,258.964661 275.289703,260.643463 275.376312,262.302795 
	C275.703186,268.565674 278.427551,271.621063 285.355530,272.519287 
	C289.036224,272.996490 289.972504,274.349640 288.578247,277.903992 
	C283.857910,276.505615 279.989349,273.756348 275.340363,270.688324 
	C275.340363,274.076294 275.340363,276.844879 275.340607,280.094238 
z"/>
<path fill="#000000" opacity="1.000000" stroke="none" 
	d="
M371.780762,297.171082 
	C356.175659,302.431671 343.273041,292.923218 344.551117,278.158203 
	C345.209259,270.554718 344.657593,262.847748 344.684113,255.187653 
	C344.691589,253.021408 344.448792,250.688797 347.791351,250.698944 
	C350.991211,250.708649 351.092743,252.886841 351.105103,255.137573 
	C351.152740,263.796539 351.041504,272.458282 351.223450,281.114075 
	C351.416046,290.278290 357.078949,296.659943 364.683258,296.645569 
	C372.935669,296.629974 379.391144,290.057770 379.600372,281.073700 
	C379.832794,271.095764 379.651917,261.126129 375.929230,251.637161 
	C380.472961,249.796341 381.274963,250.197144 381.313904,254.703125 
	C381.394531,264.027771 381.487854,273.356750 381.288574,282.677826 
	C381.149750,289.170990 378.114014,294.103119 371.780762,297.171082 
z"/>
<path fill="#000000" opacity="1.000000" stroke="none" 
	d="
M407.276733,276.999939 
	C407.272461,282.660339 407.327026,287.821838 407.238159,292.980835 
	C407.197418,295.346252 407.899750,298.388153 403.873413,298.262787 
	C399.832825,298.137024 400.810455,295.010437 400.794098,292.733154 
	C400.712738,281.413971 400.768463,270.093872 400.753998,258.774109 
	C400.745575,252.197800 399.026184,251.019409 392.572296,252.831345 
	C390.212555,253.493866 388.385803,255.627457 385.554016,255.329407 
	C384.064209,252.108551 385.383026,250.428131 388.550964,250.378448 
	C398.686218,250.219498 408.824219,249.650314 418.962860,250.419434 
	C422.290619,250.671875 423.893036,251.850433 422.435760,255.666122 
	C418.994049,254.848389 416.311920,252.632217 412.929779,252.357315 
	C409.015411,252.039185 407.021332,253.120483 407.211182,257.525696 
	C407.483276,263.839661 407.278229,270.174225 407.276733,276.999939 
z"/>
<path fill="#000000" opacity="1.000000" stroke="none" 
	d="
M442.697266,291.898621 
	C444.285492,281.735931 440.741272,273.572723 435.429504,265.793335 
	C432.362000,261.300781 429.789124,256.470520 426.765320,251.410172 
	C431.133545,249.964417 433.796814,250.509155 435.914581,254.341293 
	C439.595825,261.002625 443.723083,267.417511 448.258636,274.920471 
	C451.774323,266.900787 456.685669,260.695740 458.527863,253.095459 
	C459.442322,249.322632 461.255951,250.513687 464.436707,250.605591 
	C460.692871,254.593475 459.232941,258.690979 456.942017,262.265686 
	C451.009430,271.522705 447.853058,281.332214 449.200256,292.458038 
	C449.479645,294.765137 450.378265,298.300934 445.954803,298.262115 
	C441.536926,298.223389 443.069672,294.740570 442.697266,291.898621 
z"/>
<path fill="#000000" opacity="1.000000" stroke="none" 
	d="
M326.260651,280.214966 
	C323.957916,272.485901 321.522705,265.146729 316.275696,258.953979 
	C316.028687,255.716354 317.951202,253.505402 320.834625,250.182693 
	C327.733521,266.386078 334.309265,281.830475 340.942413,297.409668 
	C336.436707,299.282471 334.356110,297.991119 332.821686,294.402008 
	C330.815155,289.708649 329.539642,284.668304 326.260651,280.214966 
z"/>
<path fill="#000000" opacity="1.000000" stroke="none" 
	d="
M313.916931,263.060913 
	C312.115265,271.176361 307.122833,278.311493 305.121094,286.630768 
	C304.567108,288.933014 304.189331,291.178558 304.259705,293.513855 
	C304.295624,294.706818 304.501556,295.927704 305.851837,296.337921 
	C307.420593,296.814484 308.451263,295.846893 309.098450,294.634979 
	C310.194489,292.582520 311.010345,290.379181 312.125519,288.338440 
	C314.943634,283.181305 318.970428,279.796173 325.610229,279.934631 
	C318.560150,282.424652 313.865692,287.532257 311.209503,294.826080 
	C310.340271,297.212952 308.562256,299.472656 305.637360,298.772339 
	C302.587006,298.041962 301.477600,295.099274 301.974304,292.464661 
	C303.948517,281.993439 307.444366,272.047882 313.916931,263.060913 
z"/>
</svg>